<?xml version="1.0" encoding="UTF-8"?>
<svg xmlns="http://www.w3.org/2000/svg" width="46.4579963684082" height="29.955461502075195" viewBox="652.2710000276566 43.999999344361996 46.4579963684082 29.955461502075195" preserveAspectRatio="none">
  <g>
    <defs>
      <path id="m-Path_13-846af" d="M652.2710000276566 58.97877539892964 C652.2710000276566 64.53957230213757 654.4642188866239 69.63832977210308 658.2936666882299 73.45010182990535 C658.9725145570875 74.14306698015554 659.9472846852398 74.09368943083481 660.5217019026989 73.48314672258297 C661.0961191201579 72.9056453260711 660.9742602232648 72.0474664552458 660.330229182091 71.38754261673557 C657.0403817702603 68.12023064370521 655.2475167663506 63.747479635729846 655.2475167663506 58.97877539892964 C655.2475167663506 54.20988316290257 657.0403817702603 49.83722525930624 660.330229182091 46.57002429534317 C660.9742602232648 45.90999034300006 661.0961191201579 45.05194307163358 660.5217019026989 44.457901324094614 C659.9472846852398 43.863859576555654 658.9725145570875 43.81437012293322 658.2936666882299 44.507409577639734 C654.4642188866239 48.302622484492254 652.2710000276566 53.4179767052529 652.2710000276566 58.97877539892964 Z M698.7289999723433 58.97877539892964 C698.7289999723433 53.4179767052529 696.535823137593 48.302622484492254 692.7063725028936 44.507409577639734 C692.0100397266757 43.81437012293322 691.0352478781416 43.863859576555654 690.4609118760231 44.457901324094614 C689.9040012863063 45.05194307163358 690.0083724427458 45.90999034300006 690.6698506167029 46.57002429534317 C693.9596196462862 49.83722525930624 695.7525446173371 54.20988316290257 695.7525446173371 58.97877539892964 C695.7525446173371 63.747479635729846 693.9596196462862 68.12023064370521 690.6698506167029 71.38754261673557 C690.0083724427458 72.0474664552458 689.9040012863063 72.9056453260711 690.4609118760231 73.48314672258297 C691.0352478781416 74.09368943083481 692.0100397266757 74.14306698015554 692.7063725028936 73.45010182990535 C696.535823137593 69.63832977210308 698.7289999723433 64.53957230213757 698.7289999723433 58.97877539892964 Z M658.6069775297136 58.97877539892964 C658.6069775297136 62.93905252221019 660.1039405781638 66.61865396164615 662.7845539448516 69.37436095288652 C663.4808102275509 70.1003709958143 664.4903764073697 70.1003709958143 665.0822020386707 69.45678339488485 C665.6740276699717 68.82990444905224 665.517372721412 68.03781178264452 664.8559134347435 67.3446604236363 C662.732328703326 65.08403238690948 661.5834942684077 62.16348051167246 661.5834942684077 58.97877539892964 C661.5834942684077 55.777547839848026 662.732328703326 52.87333220219176 664.8559134347435 50.612759669998596 C665.517372721412 49.919719320057666 665.6740276699717 49.11118119747072 665.0822020386707 48.50063669875005 C664.4903764073697 47.840602746406944 663.4808102275509 47.85710549758865 662.7845539448516 48.566647703476875 C660.1039405781638 51.33880373183412 658.6069775297136 55.018498275649094 658.6069775297136 58.97877539892964 Z M692.3756334159151 58.97877539892964 C692.3756334159151 55.018498275649094 690.8785929295819 51.33880373183412 688.2154474716949 48.566647703476875 C687.5193111232777 47.85710549758865 686.4922354826235 47.840602746406944 685.9004702906458 48.50063669875005 C685.3259340832689 49.11118119747072 685.4651598419692 49.919719320057666 686.1266380159263 50.612759669998596 C688.2503020739558 52.87333220219176 689.3991780609089 55.777547839848026 689.3991780609089 58.97877539892964 C689.3991780609089 62.16348051167246 688.2503020739558 65.08403238690948 686.1266380159263 67.3446604236363 C685.4651598419692 68.03781178264452 685.3259340832689 68.82990444905224 685.9004702906458 69.45678339488485 C686.4922354826235 70.1003709958143 687.5193111232777 70.1003709958143 688.2154474716949 69.37436095288652 C690.8785929295819 66.61865396164615 692.3756334159151 62.93905252221019 692.3756334159151 58.97877539892964 Z M664.9603639177948 58.97877539892964 C664.9603639177948 61.222882779786474 665.7610508518926 63.33500575103503 667.15358230458 65.00160994491114 C667.7975330747774 65.77718374591771 668.8943216974111 65.79370261131886 669.5035160792481 65.13359614498825 C670.0778539700954 64.52304985579875 669.8689133406867 63.7805209474698 669.2945754498395 63.02147138327087 C668.406925773144 61.91584613956783 667.9195317376059 60.51339697366632 667.9195317376059 58.97877539892964 C667.9195317376059 57.44415382419298 668.406925773144 56.041516659064584 669.2945754498395 54.93607762411959 C669.8689133406867 54.160505613581854 670.0778539700954 53.4179767052529 669.5035160792481 52.807433997001056 C668.8943216974111 52.1638463960716 667.7975330747774 52.18036705194158 667.15358230458 52.939416616140505 C665.7610508518926 54.62254504682426 664.9603639177948 56.73466801807281 664.9603639177948 58.97877539892964 Z M686.0396960493462 58.97877539892964 C686.0396960493462 56.73466801807281 685.2389883392309 54.62254504682426 683.8290900247365 52.939416616140505 C683.2024664530402 52.18036705194158 682.105878035665 52.1638463960716 681.4964834485696 52.807433997001056 C680.9047182565919 53.4179767052529 681.1136569972716 54.160505613581854 681.705425966707 54.93607762411959 C682.5930756434025 56.041516659064584 683.0632406943398 57.44415382419298 683.0632406943398 58.97877539892964 C683.0632406943398 60.51339697366632 682.5930756434025 61.91584613956783 681.705425966707 63.02147138327087 C681.1136569972716 63.7805209474698 680.9047182565919 64.52304985579875 681.4964834485696 65.13359614498825 C682.105878035665 65.79370261131886 683.2024664530402 65.77718374591771 683.8290900247365 65.00160994491114 C685.2389883392309 63.33500575103503 686.0396960493462 61.222882779786474 686.0396960493462 58.97877539892964 Z M675.4912870577081 63.004950727400896 C677.7890333654275 63.004950727400896 679.7384168572373 61.17331723123888 679.7384168572373 58.962252952590845 C679.7384168572373 56.75118867394279 677.7890333654275 54.93607762411959 675.4912870577081 54.93607762411959 C673.2109661623902 54.93607762411959 671.2441553694499 56.75118867394279 671.2441553694499 58.962252952590845 C671.2441553694499 61.17331723123888 673.2109661623902 63.004950727400896 675.4912870577081 63.004950727400896 Z "></path>
    </defs>
    <g style="mix-blend-mode:normal">
      <use xmlns:xlink="http://www.w3.org/1999/xlink" xlink:href="#m-Path_13-846af" fill="#0BC800" fill-opacity="1.0"></use>
    </g>
  </g>
</svg>
